# xmcd CD database file
#
# Track frame offsets:
#	150
#	19202
#	39212
#	58265
#
# Disc length: 1041 seconds
#
# Revision: 4
# Processed by: cddbd v1.5.1PL0 Copyright (c) Steve Scherf et al.
# Submitted via: CDex 1.51
#
DISCID=2c040f04
DTITLE=吉井怜 - Cool-Girl
DYEAR=1999
DGENRE=Newage
TTITLE0=Cool-Girl
TTITLE1=仮面天使ロゼッタ
TTITLE2=Cool-Girl  （カラオケ）
TTITLE3=吉井怜 with 吉川茉絵
EXTD=YEAR: 1999
EXTT0=
EXTT1=
EXTT2=
EXTT3=
PLAYORDER=
